<svg xmlns="http://www.w3.org/2000/svg" xmlns:xlink="http://www.w3.org/1999/xlink" viewBox="0,0,256,256" width="50px" height="50px" fill-rule="nonzero"><g fill-opacity="0.81176" fill="#4a22c0" fill-rule="nonzero" stroke="none" stroke-width="1" stroke-linecap="butt" stroke-linejoin="miter" stroke-miterlimit="10" stroke-dasharray="" stroke-dashoffset="0" font-family="none" font-weight="none" font-size="none" text-anchor="none" style="mix-blend-mode: normal"><g transform="scale(5.12,5.12)"><path d="M24,2c-7.168,0 -13,8.29233 -13,18.48633c0,5.26619 1.56494,10.00832 4.06055,13.37305c-0.19039,1.02259 0.08393,2.07689 0.74856,2.87702c0.66464,0.80013 1.65072,1.26318 2.69089,1.2636c1.933,0 3.5,-1.567 3.5,-3.5c0,-1.933 -1.567,-3.5 -3.5,-3.5c-0.19052,0.00143 -0.3806,0.01841 -0.56836,0.05078c-1.78808,-2.66355 -2.93164,-6.43932 -2.93164,-10.56445c0,-7.853 4.122,-14.48633 9,-14.48633c4.119,0 7.68913,4.7375 8.70313,10.9375c1.422,0.408 2.83856,0.95995 4.22656,1.62695c-0.678,-9.294 -6.21769,-16.56445 -12.92969,-16.56445zM22.5,17c-1.933,0 -3.5,1.567 -3.5,3.5c0,1.933 1.567,3.5 3.5,3.5c1.33477,-0.00071 2.55294,-0.76055 3.14063,-1.95898c3.24975,-0.20353 7.00547,0.7991 10.47266,2.87695c6.86,4.113 10.59053,11.30508 8.14453,15.70508c-0.804,1.446 -2.25245,2.48591 -4.18945,3.00391c-2.789,0.746 -6.20912,0.36672 -9.57812,-0.98828c-1.069,0.994 -2.24434,1.92716 -3.52734,2.78516c3.328,1.681 6.84761,2.57227 10.09961,2.57227c1.41,0 2.77102,-0.16586 4.04102,-0.50586c3.007,-0.805 5.30739,-2.50783 6.65039,-4.92383c3.584,-6.449 -0.62598,-15.70812 -9.58398,-21.07812c-4.26247,-2.55641 -8.98438,-3.73447 -13.13477,-3.39453c-0.65947,-0.69658 -1.57593,-1.09197 -2.53516,-1.09375zM9.16016,23.32422c-7.081,5.471 -10.11811,13.47519 -6.91211,19.24219c1.343,2.416 3.64339,4.11883 6.65039,4.92383c1.271,0.34 2.62902,0.50586 4.04102,0.50586c3.8,0 7.97058,-1.20642 11.76758,-3.48242c4.24784,-2.54671 7.38872,-5.96995 9.16992,-9.55078c1.7511,-0.19075 3.12305,-1.66185 3.12305,-3.46289c0,-1.93 -1.57,-3.5 -3.5,-3.5c-1.93,0 -3.5,1.57 -3.5,3.5c0,0.54022 0.13208,1.04663 0.35156,1.50391c-1.44393,2.97478 -4.13811,5.94148 -7.70117,8.07813c-4.296,2.576 -9.05075,3.52792 -12.71875,2.54492c-1.936,-0.518 -3.3835,-1.55791 -4.1875,-3.00391c-1.934,-3.48 0.00216,-8.69958 4.28516,-12.76758c-0.411,-1.44 -0.70514,-2.95625 -0.86914,-4.53125z"></path></g></g><g fill-opacity="0.78824" fill="#cc0eb4" fill-rule="nonzero" stroke="none" stroke-width="1" stroke-linecap="butt" stroke-linejoin="miter" stroke-miterlimit="10" stroke-dasharray="" stroke-dashoffset="0" font-family="none" font-weight="none" font-size="none" text-anchor="none" style="mix-blend-mode: normal"><g id="text"><path d="M99.405,143.33v0c0,-0.44 -0.16,-0.79667 -0.48,-1.07c-0.32,-0.26667 -0.72333,-0.51333 -1.21,-0.74c-0.48,-0.22667 -1.00333,-0.46 -1.57,-0.7c-0.56667,-0.24 -1.09333,-0.53333 -1.58,-0.88c-0.48667,-0.34667 -0.89,-0.78 -1.21,-1.3c-0.32,-0.52 -0.48,-1.18333 -0.48,-1.99v0c0,-0.69333 0.11667,-1.29667 0.35,-1.81c0.23333,-0.51333 0.56333,-0.94 0.99,-1.28c0.43333,-0.34 0.94333,-0.59333 1.53,-0.76c0.58667,-0.16 1.24,-0.24 1.96,-0.24v0c0.83333,0 1.62,0.07 2.36,0.21c0.74,0.14667 1.34667,0.35667 1.82,0.63v0l-0.88,2.35c-0.3,-0.18667 -0.75,-0.36 -1.35,-0.52c-0.6,-0.16 -1.25,-0.24 -1.95,-0.24v0c-0.65333,0 -1.15333,0.13 -1.5,0.39c-0.34667,0.26 -0.52,0.61 -0.52,1.05v0c0,0.40667 0.16,0.74667 0.48,1.02c0.32,0.27333 0.72333,0.52667 1.21,0.76c0.48,0.23333 1.00333,0.47333 1.57,0.72c0.56667,0.24667 1.09333,0.54333 1.58,0.89c0.48667,0.34667 0.89,0.77667 1.21,1.29c0.32,0.51333 0.48,1.15 0.48,1.91v0c0,0.76667 -0.12667,1.42667 -0.38,1.98c-0.25333,0.55333 -0.60667,1.01333 -1.06,1.38c-0.46,0.36667 -1.01333,0.64 -1.66,0.82c-0.65333,0.18 -1.36667,0.27 -2.14,0.27v0c-1.02667,0 -1.93,-0.09667 -2.71,-0.29c-0.77333,-0.19333 -1.34667,-0.38333 -1.72,-0.57v0l0.9,-2.4c0.15333,0.08 0.35,0.17 0.59,0.27c0.24,0.09333 0.51,0.18 0.81,0.26c0.3,0.08667 0.61667,0.15667 0.95,0.21c0.33333,0.05333 0.67667,0.08 1.03,0.08v0c0.83333,0 1.47333,-0.14 1.92,-0.42c0.44,-0.28 0.66,-0.70667 0.66,-1.28zM109.895,147.18l-2.5,-4.24h-0.72v4.24h-2.66v-14.34h2.66v8.46l0.62,-0.28l2.33,-4.08h2.93l-2.46,3.89l-1.04,0.78l1.13,0.8l2.76,4.77zM114.295,147.18v-10.24h2.67v10.24zM113.905,134.05v0c0,-0.39333 0.14667,-0.73 0.44,-1.01c0.29333,-0.28 0.7,-0.42 1.22,-0.42v0c0.52,0 0.94,0.14 1.26,0.42c0.32,0.28 0.48,0.61667 0.48,1.01v0c0,0.4 -0.16,0.73333 -0.48,1c-0.32,0.26 -0.74,0.39 -1.26,0.39v0c-0.52,0 -0.92667,-0.13 -1.22,-0.39c-0.29333,-0.26667 -0.44,-0.6 -0.44,-1zM122.325,132.84v10.9c0,0.48 0.06333,0.82667 0.19,1.04c0.12,0.22 0.31667,0.33 0.59,0.33v0c0.16,0 0.32,-0.01333 0.48,-0.04c0.16,-0.02667 0.35333,-0.08667 0.58,-0.18v0l0.29,2.09c-0.22,0.10667 -0.55333,0.21333 -1,0.32c-0.45333,0.11333 -0.92,0.17 -1.4,0.17v0c-0.77333,0 -1.36667,-0.18333 -1.78,-0.55c-0.40667,-0.36 -0.61,-0.95667 -0.61,-1.79v0v-12.29zM128.345,132.84v10.9c0,0.48 0.06333,0.82667 0.19,1.04c0.12,0.22 0.31667,0.33 0.59,0.33v0c0.16667,0 0.32667,-0.01333 0.48,-0.04c0.16,-0.02667 0.35667,-0.08667 0.59,-0.18v0l0.28,2.09c-0.22,0.10667 -0.55333,0.21333 -1,0.32c-0.45333,0.11333 -0.91667,0.17 -1.39,0.17v0c-0.78,0 -1.37667,-0.18333 -1.79,-0.55c-0.40667,-0.36 -0.61,-0.95667 -0.61,-1.79v0v-12.29zM131.565,142.47v-2.36h5.14v2.36zM146.845,141.9v-9.06h2.66v9.26c0,0.92667 -0.12333,1.72667 -0.37,2.4c-0.24667,0.66667 -0.58667,1.22 -1.02,1.66c-0.44,0.43333 -0.97333,0.75333 -1.6,0.96c-0.62667,0.20667 -1.31667,0.31 -2.07,0.31v0c-3.63333,0 -5.45,-1.66 -5.45,-4.98v0v-9.61h2.81v9.06c0,0.56 0.05,1.03333 0.15,1.42c0.1,0.38667 0.26,0.7 0.48,0.94c0.22,0.24 0.49333,0.41 0.82,0.51c0.32667,0.10667 0.71,0.16 1.15,0.16v0c0.86,0 1.48,-0.24 1.86,-0.72c0.38667,-0.48 0.58,-1.25 0.58,-2.31zM151.835,151.28v-14.34h1.95l0.31,1.23h0.08c0.35333,-0.52 0.77333,-0.90333 1.26,-1.15c0.48,-0.24667 1.07,-0.37 1.77,-0.37v0c1.28,0 2.24333,0.40667 2.89,1.22c0.64,0.81333 0.96,2.12 0.96,3.92v0c0,0.87333 -0.10333,1.66333 -0.31,2.37c-0.20667,0.7 -0.51,1.29667 -0.91,1.79c-0.4,0.49333 -0.89,0.87 -1.47,1.13c-0.58,0.26 -1.24667,0.39 -2,0.39v0c-0.42667,0 -0.77667,-0.03333 -1.05,-0.1c-0.27333,-0.06 -0.54667,-0.15667 -0.82,-0.29v0v4.2zM156.405,138.91v0c-0.52,0 -0.92667,0.13 -1.22,0.39c-0.29333,0.25333 -0.52333,0.64 -0.69,1.16v0v4.26c0.19333,0.15333 0.40333,0.27333 0.63,0.36c0.22667,0.08667 0.52333,0.13 0.89,0.13v0c0.76667,0 1.34,-0.27 1.72,-0.81c0.38,-0.53333 0.57,-1.42333 0.57,-2.67v0c0,-0.9 -0.15,-1.59667 -0.45,-2.09c-0.3,-0.48667 -0.78333,-0.73 -1.45,-0.73z"></path></g></g></svg>